<svg width="30" height="32" viewBox="0 0 30 32" fill="none" xmlns="http://www.w3.org/2000/svg">
<path d="M15 0C6.71371 0 0 7.08846 0 15.8373C0 24.5861 6.71371 31.6746 15 31.6746C23.2863 31.6746 30 24.5861 30 15.8373C30 7.08846 23.2863 0 15 0ZM22.3669 10.8498L19.9052 23.0982C19.7238 23.9667 19.2339 24.1774 18.5504 23.7687L14.8004 20.8503L12.9919 22.6895C12.7923 22.9002 12.623 23.079 12.2359 23.079L12.502 19.0494L19.4516 12.4208C19.754 12.1398 19.3851 11.9801 18.9859 12.2611L10.3972 17.9702L6.69556 16.7505C5.89113 16.4823 5.87298 15.9011 6.86492 15.4924L21.3266 9.60455C21.998 9.34911 22.5847 9.77697 22.3669 10.8498Z" fill="white"/>
</svg>
