<svg width="30" height="30" viewBox="0 0 30 30" fill="none" xmlns="http://www.w3.org/2000/svg">
<path d="M15 0C18.9782 0 22.7936 1.58035 25.6066 4.3934C28.4196 7.20644 30 11.0218 30 15C30 16.9698 29.612 18.9204 28.8582 20.7403C28.1044 22.5601 26.9995 24.2137 25.6066 25.6066C24.2137 26.9995 22.5601 28.1044 20.7403 28.8582C18.9204 29.612 16.9698 30 15 30C11.0218 30 7.20644 28.4196 4.3934 25.6066C1.58035 22.7936 0 18.9782 0 15C0 11.0218 1.58035 7.20644 4.3934 4.3934C7.20644 1.58035 11.0218 0 15 0ZM22.86 18.045C21.09 16.41 21.33 16.665 23.46 13.83C24.75 12.105 25.275 11.055 25.11 10.605C24.945 10.185 24 10.29 24 10.29L20.835 10.32C20.835 10.32 20.595 10.275 20.43 10.38C20.25 10.5 20.145 10.725 20.145 10.725C20.145 10.725 19.635 12.06 18.975 13.2C17.565 15.585 16.995 15.705 16.77 15.57C16.245 15.225 16.365 14.175 16.365 13.425C16.365 11.115 16.725 10.14 15.69 9.9C15.345 9.81 15.09 9.75 14.205 9.75C13.08 9.75 12.12 9.75 11.58 10.02C11.25 10.2 10.935 10.59 11.115 10.605C11.325 10.635 11.79 10.74 12.045 11.085C12.375 11.52 12.36 12.51 12.36 12.51C12.36 12.51 12.54 15.24 11.925 15.585C11.49 15.81 10.905 15.33 9.66 13.17C9 12.06 8.52 10.83 8.52 10.83L8.25 10.5L7.785 10.275H4.77C4.77 10.275 4.32 10.275 4.155 10.5C4.005 10.65 4.14 10.98 4.14 10.98C4.14 10.98 6.495 16.44 9.165 19.2C11.61 21.75 14.385 21.465 14.385 21.465H15.645C15.645 21.465 16.02 21.54 16.215 21.345C16.395 21.15 16.395 20.91 16.395 20.91C16.395 20.91 16.365 19.215 17.145 18.975C17.925 18.75 18.915 20.595 19.965 21.33C20.76 21.87 21.36 21.75 21.36 21.75L24.18 21.705C24.18 21.705 25.65 21.615 24.945 20.46C24.9 20.37 24.54 19.605 22.86 18.045Z" fill="white"/>
</svg>
