<svg width="30" height="30" viewBox="0 0 30 30" fill="none" xmlns="http://www.w3.org/2000/svg">
<path d="M15 0C6.71564 0 0 6.71564 0 15C0 23.2844 6.71564 30 15 30C23.2844 30 30 23.2844 30 15C30 6.71564 23.2844 0 15 0ZM8.81516 10.0002H21.1844C21.3411 10.0002 21.4887 10.0374 21.6218 10.0998L15.6735 14.2752C15.1563 14.7929 14.836 14.7929 14.3187 14.2752L8.3729 10.1023C8.5079 10.0384 8.65645 10.0002 8.81516 10.0002ZM22.2223 19.2397C22.2223 19.8131 21.7577 20.2781 21.1848 20.2781H8.81516C8.24226 20.2781 7.77774 19.8131 7.77774 19.2397V11.3497C7.77774 11.2974 7.78548 11.2476 7.79323 11.1977L13.8997 15.5318C14.5074 16.14 15.4931 16.14 16.1008 15.5318L22.2073 11.1977C22.2145 11.2476 22.2227 11.2974 22.2227 11.3497V19.2397H22.2223Z" fill="white"/>
</svg>
