<svg width="163" height="33" viewBox="0 0 163 33" fill="none" xmlns="http://www.w3.org/2000/svg">
<path d="M1.376 33C0.976 33 0.776 32.8 0.776 32.4V1.608C0.776 1.208 0.976 1.008 1.376 1.008H15.968C16.336 1.008 16.656 1.136 16.928 1.392L21.728 6.192C21.984 6.464 22.112 6.784 22.112 7.152V32.4C22.112 32.8 21.912 33 21.512 33H13.544C13.144 33 12.944 32.8 12.944 32.4V9.288H9.944V32.4C9.944 32.8 9.744 33 9.344 33H1.376ZM26.2666 33C25.8666 33 25.6666 32.8 25.6666 32.4V7.2C25.6666 6.8 25.8666 6.6 26.2666 6.6H33.3706C33.7706 6.6 33.9706 6.8 33.9706 7.2V32.4C33.9706 32.8 33.7706 33 33.3706 33H26.2666ZM26.1466 4.608C25.8266 4.608 25.6666 4.448 25.6666 4.128V1.08C25.6666 0.759999 25.8266 0.599999 26.1466 0.599999H33.5386C33.8266 0.599999 33.9706 0.759999 33.9706 1.08V4.128C33.9706 4.448 33.8266 4.608 33.5386 4.608H26.1466ZM37.9123 33C37.5123 33 37.3123 32.8 37.3123 32.4V1.608C37.3123 1.208 37.5123 1.008 37.9123 1.008H45.0163C45.4163 1.008 45.6163 1.208 45.6163 1.608V32.4C45.6163 32.8 45.4163 33 45.0163 33H37.9123ZM57.7235 33C57.3395 33 57.0195 32.896 56.7635 32.688L53.5955 29.64L49.2995 24.864C49.1235 24.656 49.0115 24.512 48.9635 24.432C48.9155 24.352 48.8915 24.192 48.8915 23.952V10.056C48.8915 9.8 48.9155 9.632 48.9635 9.552C49.0115 9.472 49.1235 9.336 49.2995 9.144L52.9235 5.04L56.7635 1.32C56.9235 1.176 57.0675 1.088 57.1955 1.056C57.3235 1.024 57.4995 1.008 57.7235 1.008H64.1315C64.5315 1.008 64.7315 1.208 64.7315 1.608V7.08C64.7315 7.224 64.7155 7.36 64.6835 7.488C64.6675 7.6 64.5875 7.72 64.4435 7.848L60.7235 10.944L58.0355 14.016V20.232L60.9395 23.472L64.4435 26.376C64.5715 26.488 64.6515 26.608 64.6835 26.736C64.7155 26.848 64.7315 26.968 64.7315 27.096V32.4C64.7315 32.8 64.5315 33 64.1315 33H57.7235ZM73.9033 33C73.5353 33 73.2153 32.864 72.9433 32.592L68.1433 27.792C67.8713 27.536 67.7353 27.216 67.7353 26.832V12.768C67.7353 12.384 67.8713 12.064 68.1433 11.808L72.9433 7.008C73.2153 6.736 73.5353 6.6 73.9033 6.6H86.7433C87.1433 6.6 87.3433 6.8 87.3433 7.2V32.4C87.3433 32.8 87.1433 33 86.7433 33H81.1513C80.9273 33 80.7513 32.968 80.6233 32.904C80.4953 32.824 80.3673 32.72 80.2393 32.592L79.0393 31.392L77.8393 32.592C77.5673 32.864 77.2473 33 76.8793 33H73.9033ZM77.1673 25.992H77.9113C78.3113 25.992 78.5993 25.904 78.7753 25.728C78.9513 25.536 79.0393 25.232 79.0393 24.816V13.608H77.1913C76.7913 13.608 76.4953 13.704 76.3033 13.896C76.1273 14.072 76.0393 14.368 76.0393 14.784V24.816C76.0393 25.232 76.1273 25.536 76.3033 25.728C76.4793 25.904 76.7673 25.992 77.1673 25.992ZM91.4229 33C91.0229 33 90.8229 32.8 90.8229 32.4V7.2C90.8229 6.8 91.0229 6.6 91.4229 6.6H96.5589C96.8469 6.6 97.1109 6.736 97.3509 7.008L99.0309 8.808L100.927 6.888C101.135 6.696 101.375 6.6 101.647 6.6H103.783C104.183 6.6 104.383 6.8 104.383 7.2V14.112C104.383 14.368 104.359 14.544 104.311 14.64C104.279 14.72 104.191 14.808 104.047 14.904L99.1269 18.408V32.4C99.1269 32.8 98.9269 33 98.5269 33H91.4229ZM106.845 33C106.445 33 106.245 32.8 106.245 32.4V6.816C106.245 6.448 106.381 6.128 106.653 5.856L111.117 1.392C111.389 1.136 111.709 1.008 112.077 1.008H117.429C117.813 1.008 118.133 1.136 118.389 1.392L122.445 5.448H123.549L127.605 1.392C127.861 1.136 128.181 1.008 128.565 1.008H133.917C134.301 1.008 134.621 1.136 134.877 1.392L139.365 5.856C139.621 6.128 139.749 6.448 139.749 6.816V32.4C139.749 32.8 139.549 33 139.149 33H131.181C130.781 33 130.581 32.8 130.581 32.4V10.44H127.581V32.4C127.581 32.8 127.381 33 126.981 33H119.013C118.613 33 118.413 32.8 118.413 32.4V10.44H115.413V32.4C115.413 32.8 115.213 33 114.813 33H106.845ZM149.419 33C149.051 33 148.731 32.864 148.459 32.592L143.659 27.792C143.387 27.536 143.251 27.216 143.251 26.832V12.768C143.251 12.384 143.387 12.064 143.659 11.808L148.459 7.008C148.731 6.736 149.051 6.6 149.419 6.6H156.691C157.075 6.6 157.395 6.736 157.651 7.008L162.451 11.808C162.723 12.064 162.859 12.384 162.859 12.768V26.832C162.859 27.216 162.723 27.536 162.451 27.792L157.651 32.592C157.395 32.864 157.075 33 156.691 33H149.419ZM152.683 25.992H153.403C153.803 25.992 154.091 25.904 154.267 25.728C154.459 25.536 154.555 25.232 154.555 24.816V14.784C154.555 14.368 154.459 14.072 154.267 13.896C154.091 13.704 153.803 13.608 153.403 13.608H152.683C152.267 13.608 151.971 13.704 151.795 13.896C151.635 14.072 151.555 14.368 151.555 14.784V24.816C151.555 25.232 151.643 25.536 151.819 25.728C151.995 25.904 152.283 25.992 152.683 25.992Z" fill="#CF0000"/>
</svg>
